<svg width="24" height="24" viewBox="0 0 24 24" fill="none" xmlns="http://www.w3.org/2000/svg">
<rect width="24" height="24" rx="6" fill="#D9D9D9"/>
<rect width="24" height="24" rx="6" fill="#F1F1F1"/>
<path d="M2.15812 10.1534L1.69704 9.03037L1.24067 10.1534M12.307 9.70693C12.2138 9.76103 12.1061 9.76574 11.9734 9.76574H11.159V9.13811H11.988C12.1056 9.13811 12.2284 9.14281 12.307 9.18704C12.3954 9.22609 12.4491 9.31454 12.4491 9.43734C12.4491 9.55966 12.395 9.6627 12.307 9.70693ZM18.1438 10.1534L17.6781 9.03037L17.217 10.1534H18.1438ZM7.26948 11.3696H6.57787L6.57316 9.1621L5.59691 11.3696H5.00833L4.02736 9.1621V11.3696H2.65872L2.39854 10.742H1.00072L0.740546 11.3696H0.00988021L1.2115 8.55423H2.21223L3.36021 11.2177V8.55423H4.4588L5.3419 10.4625L6.15114 8.55423H7.26948V11.3696ZM10.0162 11.3696H7.76961V8.55423H10.0162V9.14281H8.44147V9.64811H9.98184V10.2221H8.44664V10.7862H10.0214V11.3701H10.0162V11.3696ZM13.1896 9.30936C13.1896 9.76056 12.8904 9.9911 12.714 10.0598C12.8612 10.1139 12.9887 10.2169 13.0475 10.295C13.1407 10.4371 13.1604 10.5599 13.1604 10.8102V11.3644H12.4834L12.4787 11.0111C12.4787 10.8394 12.4933 10.599 12.371 10.4616C12.2726 10.3633 12.1207 10.3388 11.8803 10.3388H11.159V11.364H10.4871V8.55329H12.0369C12.3804 8.55329 12.6354 8.56317 12.8513 8.6855C13.0621 8.81394 13.1896 8.99555 13.1896 9.30936ZM14.2642 11.3696H13.5773V8.55423H14.2642V11.3696ZM22.2347 11.3696H21.2829L20.0074 9.25573V11.3696H18.6388L18.3786 10.742H16.9808L16.7258 11.3696H15.9358C15.607 11.3696 15.1953 11.2962 14.9596 11.0605C14.7243 10.8201 14.6015 10.4964 14.6015 9.98639C14.6015 9.56954 14.6749 9.18704 14.9643 8.88781C15.1802 8.66197 15.5237 8.55894 15.9848 8.55894H16.6373V9.1621H15.9998C15.7547 9.1621 15.6173 9.19645 15.4799 9.32865C15.367 9.44628 15.2885 9.67211 15.2885 9.96616C15.2885 10.2701 15.3473 10.486 15.4748 10.6281C15.5778 10.7411 15.7693 10.7754 15.9457 10.7754H16.2497L17.1963 8.56317H18.2069L19.345 11.2266V8.55329H20.3702L21.5525 10.5152V8.55329H22.2441L22.2347 11.3696ZM0 11.9192H1.14799L1.40817 11.2915H1.98686L2.24704 11.9192H4.5082V11.4435L4.7091 11.9243H5.88155L6.08245 11.4388V11.9243H11.7033L11.6986 10.8991H11.8064C11.885 10.9038 11.9047 10.909 11.9047 11.0365V11.929H14.8133V11.6886C15.0485 11.8161 15.4117 11.929 15.8926 11.929H17.1139L17.3741 11.3014H17.9528L18.2078 11.929H20.5673V11.3357L20.9254 11.929H22.8336V8H20.9649V8.46578L20.7047 8H18.787V8.46578L18.5466 8H15.9565C15.5251 8 15.1421 8.05881 14.8335 8.23054V8H13.0433V8.23054C12.8471 8.05881 12.5822 8 12.283 8H5.7437L5.30709 9.01531L4.85589 8H2.7961V8.46578L2.57027 8H0.814412L0 9.85889V11.9192Z" fill="#F1F1F1"/>
<path d="M23.994 13.9987H22.7679C22.6451 13.9987 22.5619 14.0034 22.4932 14.0476C22.4245 14.0918 22.3949 14.1605 22.3949 14.2485C22.3949 14.3563 22.4537 14.4249 22.5421 14.4593C22.6108 14.4838 22.6894 14.4936 22.8023 14.4936L23.165 14.5035C23.533 14.5134 23.7781 14.5769 23.93 14.7294C23.9597 14.7491 23.9743 14.7736 23.994 14.798M23.994 15.858C23.8322 16.0985 23.5132 16.2161 23.0818 16.2161H21.7818V15.6129H23.0766C23.2041 15.6129 23.2972 15.5983 23.3513 15.5442C23.4003 15.5 23.4299 15.4365 23.4299 15.3626C23.4299 15.2794 23.3956 15.2154 23.3466 15.1763C23.2977 15.1321 23.229 15.1123 23.1114 15.1123C22.4786 15.0926 21.6891 15.1321 21.6891 14.2391C21.6891 13.8321 21.9493 13.4002 22.6555 13.4002H23.9945V12.8408H22.7487C22.3709 12.8408 22.1013 12.9293 21.9051 13.0714V12.8408H20.0608C19.7662 12.8408 19.4181 12.9142 19.2562 13.0714V12.8408H15.9647V13.0714C15.7045 12.8799 15.2632 12.8408 15.0571 12.8408H12.8891V13.0714C12.6831 12.8705 12.222 12.8408 11.9425 12.8408H9.51435L8.96011 13.444L8.44023 12.8408H4.81042V16.7699H8.37154L8.94553 16.1568L9.48518 16.7699H11.6776V15.8477H11.8936C12.1829 15.8524 12.5264 15.843 12.8303 15.7103V16.7699H14.6403V15.7447H14.7287C14.8417 15.7447 14.8515 15.7494 14.8515 15.8623V16.7699H20.3501C20.6983 16.7699 21.0662 16.6814 21.2676 16.5196V16.7699H23.014C23.3768 16.7699 23.7301 16.7209 24.0002 16.5882V15.8576H23.994V15.858ZM21.3109 14.7298C21.4431 14.8672 21.5117 15.0389 21.5117 15.3283C21.5117 15.9366 21.1339 16.2161 20.4522 16.2161H19.1424V15.6129H20.447C20.5745 15.6129 20.663 15.5983 20.7218 15.5442C20.766 15.5 20.8004 15.4365 20.8004 15.3626C20.8004 15.2794 20.766 15.2154 20.7171 15.1763C20.6682 15.1321 20.5943 15.1123 20.4767 15.1123C19.849 15.0926 19.0591 15.1321 19.0591 14.2391C19.0591 13.8321 19.3141 13.4002 20.0203 13.4002H21.3692V13.9987H20.1332C20.0104 13.9987 19.9323 14.0034 19.8636 14.0476C19.7902 14.0918 19.7606 14.1605 19.7606 14.2485C19.7606 14.3563 19.8246 14.4249 19.9079 14.4593C19.9766 14.4838 20.0551 14.4936 20.168 14.4936L20.5308 14.5035C20.9086 14.5139 21.1589 14.5774 21.3109 14.7298ZM15.2383 14.5581C15.1498 14.6122 15.0374 14.6169 14.9047 14.6169H14.0856V13.9841H14.9146C15.0322 13.9841 15.155 13.9888 15.2336 14.033C15.322 14.0773 15.371 14.1652 15.371 14.288C15.3757 14.4061 15.3216 14.504 15.2383 14.5581ZM15.6453 14.9063C15.7972 14.9604 15.92 15.0582 15.9741 15.1415C16.0673 15.2789 16.0819 15.4064 16.087 15.6567V16.2161H15.41V15.8628C15.41 15.691 15.4246 15.4407 15.3023 15.3132C15.2039 15.2102 15.052 15.1904 14.8068 15.1904H14.0856V16.2203H13.4086V13.4049H14.9635C15.3018 13.4049 15.5521 13.4195 15.7728 13.5371C15.9835 13.6646 16.1209 13.8411 16.1209 14.1648C16.1214 14.607 15.8222 14.8376 15.6453 14.9063ZM16.494 13.4002H18.7406V13.9841H17.1659V14.4941H18.7062V15.0681H17.1659V15.6275L18.7406 15.6322V16.2161H16.494V13.4002ZM11.9519 14.7002H11.0839V13.9841H11.9618C12.2069 13.9841 12.374 14.0824 12.374 14.3276C12.374 14.5727 12.2116 14.7002 11.9519 14.7002ZM10.4116 15.9606L9.37649 14.8126L10.4116 13.7042V15.9606ZM7.74344 15.6275H6.09062V15.0681H7.567V14.4941H6.09062V13.9841H7.77778L8.51362 14.8032L7.74344 15.6275ZM13.0947 14.3276C13.0947 15.1123 12.5109 15.2695 11.9223 15.2695H11.0834V16.2161H9.77358L8.94459 15.2841L8.08125 16.2161H5.41782V13.4007H8.12547L8.95447 14.3229L9.81264 13.4007H11.9609C12.4963 13.4002 13.0947 13.5475 13.0947 14.3276Z" fill="#F1F1F1"/>
<rect width="24" height="24" rx="6" fill="#748BB3"/>
<g clip-path="url(#clip0_170_8740)">
<mask id="mask0_170_8740" style="mask-type:luminance" maskUnits="userSpaceOnUse" x="0" y="8" width="34" height="9">
<path d="M0.298279 16.5381H33.5701V8.61799H0.298279V16.5381Z" fill="white"/>
</mask>
<g mask="url(#mask0_170_8740)">
<path d="M16.0813 14.3659C16.0758 14.3688 16.0694 14.3721 16.0631 14.3748L14.4742 15.0189L13.1364 15.7725C14.3072 15.3052 15.2598 14.8935 16.1615 14.4689C16.133 14.4357 16.1065 14.4016 16.0813 14.3659Z" fill="white"/>
<path d="M22.1984 9.84398L20.7188 11.0806L19.2717 12.6761C19.2882 12.7339 19.3015 12.7928 19.311 12.8545C19.3158 12.8524 19.3199 12.8495 19.325 12.8467C21.6468 11.5854 22.9064 10.7935 22.1984 9.84398Z" fill="white"/>
</g>
<path d="M7.06606 10.2941L6.97162 10.3123C6.95189 10.3149 6.93963 10.3315 6.94291 10.3488C6.9462 10.3662 6.96439 10.3771 6.98411 10.3746L7.07723 10.3583C10.4218 9.83126 17.3767 9.10083 18.8733 10.4139C19.3297 10.8143 19.2206 11.3309 18.6912 11.9395C18.9765 12.1015 19.1801 12.357 19.2719 12.6764C20.9583 11.6836 22.1931 10.7284 22.2332 10.062V9.99646C22.2255 9.87217 22.1727 9.75874 22.0697 9.6581C21.5881 9.18809 20.2514 9.0097 18.5293 9.0097C14.9772 9.0097 9.78433 9.76863 7.06606 10.2941ZM15.9241 14.0604C14.9886 14.6466 13.8796 15.2624 12.6871 15.9091L12.6402 15.9331C12.6238 15.9428 12.6201 15.9628 12.6317 15.9766C12.6424 15.9911 12.6648 15.9946 12.681 15.9843L12.7209 15.9657C13.7324 15.4988 14.8937 14.944 16.0632 14.3753C16.0713 14.372 16.0759 14.3695 16.0812 14.3664C16.017 14.2732 15.9644 14.1708 15.9273 14.0585C15.9263 14.0591 15.9254 14.0595 15.9241 14.0604Z" fill="url(#paint0_linear_170_8740)"/>
<path d="M22.7247 14.1307L22.7957 14.1732C22.6167 14.4964 22.2514 14.7568 21.8221 14.7568C21.4715 14.7568 21.1834 14.5501 21.1685 14.1616C21.1398 13.4662 21.8765 12.8198 22.4797 12.8198C22.7381 12.8198 22.978 12.9202 22.9885 13.1667C23.0111 13.7195 22.1331 13.8885 21.5544 13.9002C21.5362 13.9578 21.5294 14.0161 21.5324 14.1047C21.5421 14.3339 21.6992 14.5269 22.0233 14.5269C22.3031 14.5269 22.5834 14.3272 22.7247 14.1307ZM22.6461 13.1317C22.641 13.0011 22.5672 12.9132 22.414 12.9132C22.0463 12.9132 21.6556 13.5504 21.5881 13.8075C22.1914 13.8075 22.6605 13.4895 22.6461 13.1317Z" fill="white"/>
<path d="M19.134 13.1112C19.1963 13.1038 19.2909 13.0959 19.3339 13.0959C19.4 13.0959 19.4621 13.1071 19.4656 13.1647C19.4664 13.1988 19.3961 13.4457 19.3816 13.5027L19.2418 14.0479C19.1855 14.2719 19.1244 14.5053 19.0698 14.6901H19.4288L19.631 13.8255C20.247 13.2576 20.4843 13.0724 20.6296 13.0724C20.6953 13.0724 20.7402 13.1026 20.7435 13.1721C20.747 13.2725 20.6771 13.4992 20.653 13.5643L20.4464 14.1943C20.3995 14.3362 20.3649 14.464 20.3682 14.5556C20.3747 14.6936 20.4694 14.7549 20.6094 14.7549C20.8724 14.7549 21.0628 14.5133 21.2291 14.2754L21.1756 14.2059C21.1084 14.3015 20.9574 14.5015 20.8345 14.5015C20.7955 14.5015 20.7589 14.4788 20.7575 14.4212C20.754 14.3473 20.7891 14.2376 20.8136 14.1641L21.0424 13.4255C21.1035 13.2221 21.1331 13.091 21.1316 13.0218C21.1259 12.8839 21.0347 12.8192 20.8958 12.8192C20.6594 12.8192 20.3451 12.9722 19.6805 13.6491H19.6711L19.7548 13.3188C19.8002 13.1381 19.8449 12.9497 19.888 12.8192C19.6586 12.893 19.3345 12.9727 19.131 13.0073L19.134 13.1112Z" fill="white"/>
<path d="M16.0402 13.6532C16.0067 12.7886 16.7718 11.9044 17.8841 11.9044C18.6279 11.9044 19.1141 12.343 19.1411 13.0143C19.1768 13.9264 18.462 14.7637 17.2978 14.7637C16.5543 14.7637 16.0674 14.3258 16.0402 13.6532ZM16.5245 13.6802C16.5435 14.1868 16.9055 14.6018 17.378 14.6018C18.2937 14.6018 18.6829 13.6071 18.6559 12.9424C18.6368 12.4345 18.2648 12.0202 17.793 12.0202C17.0061 12.0202 16.4971 13.0114 16.5245 13.6802Z" fill="white"/>
<path d="M15.4704 14.1736L14.5573 14.1748L15.0161 11.9106L15.906 11.9325L15.4704 14.1736Z" fill="white"/>
<path d="M14.5601 12.8955C14.5566 12.9754 14.5406 13.0456 14.5161 13.1662L14.3533 13.9795C14.3392 14.0508 14.3693 14.107 14.4442 14.1472L14.4392 14.1751L13.5033 14.1768L13.4956 13.9698C13.3593 14.0432 13.1936 14.1043 13.0459 14.1396C12.8967 14.1747 12.7766 14.1885 12.5956 14.1885C12.2932 14.1885 12.121 14.1619 12.0011 14.0685C11.8793 13.9723 11.8201 13.9095 11.8272 13.7782C11.8304 13.7018 11.8749 13.6043 11.9396 13.5372C12.0051 13.4674 12.0932 13.423 12.1896 13.3828C12.2864 13.3425 12.4002 13.3128 12.5639 13.2886C12.7306 13.2657 12.9614 13.2407 13.2705 13.218C13.4312 13.2064 13.5304 13.1738 13.5762 13.1583C13.6418 13.1356 13.6674 13.1106 13.677 13.0642C13.6935 12.9822 13.6643 12.9335 13.5396 12.9112C13.2006 12.8521 12.57 12.9494 12.2439 13.0212L12.4203 12.5983C12.8518 12.5426 13.253 12.5068 13.6772 12.5068C14.3506 12.5068 14.5654 12.6778 14.5601 12.8955ZM13.594 13.4284C13.5537 13.4404 13.5017 13.4536 13.4384 13.4664C13.3753 13.4798 13.2592 13.4964 13.09 13.5209C12.9745 13.5372 12.8928 13.5583 12.8485 13.5876C12.8056 13.6155 12.7799 13.6502 12.7707 13.6921C12.7615 13.7367 12.7799 13.7729 12.822 13.8001C12.8671 13.8274 12.9423 13.8408 13.0479 13.8408C13.1257 13.8408 13.2024 13.8305 13.2776 13.81C13.3543 13.7871 13.4174 13.7584 13.4671 13.7206C13.5017 13.6934 13.528 13.6576 13.5471 13.6155C13.5583 13.5882 13.5738 13.5257 13.594 13.4284Z" fill="white"/>
<path d="M10.904 12.5425L10.9684 12.2119L11.9056 12.0316L11.8061 12.5425H12.2654L12.1784 12.8695L11.7331 12.8685L11.4623 14.1738C11.4623 14.1738 10.5591 14.1686 10.556 14.1738L10.8253 12.8716H10.485L10.5542 12.5425H10.904Z" fill="white"/>
<path d="M9.56306 12.1759C9.58958 12.0425 9.82777 11.9345 10.0938 11.9345C10.3602 11.9345 10.5546 12.0425 10.5288 12.1759C10.5003 12.3095 10.2634 12.4181 9.99628 12.4181C9.72938 12.4181 9.53611 12.3095 9.56306 12.1759ZM9.18835 14.1748L9.51332 12.5517H10.4096L10.0848 14.1748H9.18835Z" fill="white"/>
<path d="M6.37012 14.7344L6.80662 12.5594H7.59351L7.53281 12.8371C7.60096 12.7541 7.70986 12.686 7.86062 12.6305C8.0127 12.5757 8.18427 12.535 8.36943 12.535C8.57476 12.535 8.70185 12.5446 8.85568 12.615C9.00841 12.686 9.11469 12.789 9.17297 12.9229C9.23236 13.0554 9.24419 13.2037 9.21264 13.3649C9.15917 13.6328 9.01126 13.8446 8.76934 13.9995C8.52874 14.1548 8.31246 14.1957 8.00393 14.1967C7.89437 14.1967 7.80321 14.1866 7.72739 14.1701C7.65289 14.1531 7.59351 14.1323 7.5488 14.1067C7.50564 14.0811 7.45984 14.0454 7.40067 13.9888L7.2543 14.7344H6.37012ZM8.00262 12.9317C7.88516 12.9317 7.77845 12.9635 7.68422 13.0263C7.59044 13.0895 7.53105 13.1812 7.50717 13.3042C7.47868 13.4459 7.49512 13.5475 7.55888 13.6101C7.62265 13.6728 7.7149 13.7042 7.83564 13.7042C7.91716 13.7042 8.00218 13.6912 8.06397 13.6637C8.14067 13.6278 8.19348 13.59 8.23971 13.5301C8.28858 13.4672 8.32123 13.3978 8.3381 13.3164C8.36352 13.1882 8.34204 13.0922 8.27477 13.0286C8.20947 12.9639 8.11963 12.9317 8.00262 12.9317Z" fill="white"/>
<mask id="mask1_170_8740" style="mask-type:luminance" maskUnits="userSpaceOnUse" x="1" y="9" width="32" height="7">
<path d="M1.01086 15.9902H32.966V9.00959H1.01086V15.9902Z" fill="white"/>
</mask>
<g mask="url(#mask1_170_8740)">
<path d="M6.47427 12.8932C6.47055 12.9723 6.45477 13.0421 6.43089 13.1631L6.2672 13.9756C6.25295 14.0473 6.28319 14.1045 6.35923 14.1429L6.35397 14.1749L5.41742 14.1737L5.40953 13.9666C5.27258 14.0399 5.10823 14.1012 4.95944 14.1371C4.8111 14.1706 4.69101 14.1855 4.51089 14.1855C4.20871 14.1855 4.03473 14.1582 3.91552 14.0653C3.79369 13.9693 3.73496 13.9059 3.7411 13.7745C3.7457 13.6987 3.78996 13.6013 3.85439 13.5335C3.91903 13.4644 4.00734 13.4192 4.10375 13.3797C4.20017 13.3386 4.31368 13.3091 4.47912 13.2864C4.645 13.2622 4.8753 13.2383 5.18449 13.2157C5.3462 13.2036 5.44547 13.1707 5.49214 13.154C5.55657 13.1319 5.58177 13.1078 5.59141 13.0609C5.60872 12.9773 5.57848 12.9298 5.45314 12.9079C5.11612 12.849 4.48394 12.9457 4.15766 13.0181L4.33515 12.5954C4.76442 12.5403 5.16762 12.5042 5.59185 12.5042C6.26544 12.5042 6.48128 12.6743 6.47427 12.8932ZM5.50792 13.4251C5.46826 13.4381 5.41676 13.4507 5.35322 13.4629C5.28967 13.4757 5.17331 13.4939 5.00502 13.5172C4.88932 13.5335 4.80847 13.5552 4.76289 13.5841C4.71906 13.613 4.69342 13.6473 4.68597 13.689C4.67699 13.7332 4.69342 13.7689 4.73681 13.797C4.78129 13.8245 4.85624 13.8387 4.96098 13.8387C5.03965 13.8387 5.117 13.8272 5.19172 13.8063C5.26754 13.7846 5.3313 13.7545 5.38061 13.7173C5.41676 13.6897 5.44284 13.655 5.4619 13.613C5.47286 13.585 5.48864 13.5228 5.50792 13.4251Z" fill="white"/>
<path d="M3.61869 13.5914C3.32638 13.6426 3.16225 13.6624 2.87432 13.6624C2.44592 13.6624 2.1054 13.4741 2.12381 13.1291C2.13695 12.8996 2.44439 12.4148 3.2258 12.4148C3.47188 12.4148 3.66427 12.4534 3.92284 12.5839L4.03613 12.0204C3.68465 11.9023 3.4515 11.8851 3.14998 11.8876C2.126 11.8975 1.1419 12.3097 1.02006 13.1476C0.895817 13.999 2.07078 14.2129 2.59296 14.2109C2.89404 14.21 3.20717 14.1995 3.49927 14.1723L3.61869 13.5914Z" fill="white"/>
</g>
</g>
<defs>
<linearGradient id="paint0_linear_170_8740" x1="8.88859" y1="13.5903" x2="20.3265" y2="6.71747" gradientUnits="userSpaceOnUse">
<stop stop-color="#B5121B"/>
<stop offset="0.699997" stop-color="#BE3D2E"/>
<stop offset="1" stop-color="#F6E2DA"/>
</linearGradient>
<clipPath id="clip0_170_8740">
<rect width="22" height="7" fill="white" transform="translate(1 9)"/>
</clipPath>
</defs>
</svg>
