<svg width="24" height="24" viewBox="0 0 24 24" fill="none" xmlns="http://www.w3.org/2000/svg">
<rect width="24" height="24" rx="6" fill="#F1F1F1"/>
<path d="M6.27551 18.9532V18.0262C6.27551 17.6708 6.0592 17.439 5.68839 17.439C5.50298 17.439 5.30212 17.5008 5.16306 17.7017C5.05491 17.5317 4.9004 17.439 4.66864 17.439C4.51414 17.439 4.35963 17.4854 4.23602 17.6553V17.4699H3.91156V18.9532H4.23602V18.1343C4.23602 17.8717 4.37508 17.748 4.59139 17.748C4.8077 17.748 4.91585 17.8871 4.91585 18.1343V18.9532H5.24032V18.1343C5.24032 17.8717 5.39482 17.748 5.59568 17.748C5.81199 17.748 5.92015 17.8871 5.92015 18.1343V18.9532H6.27551ZM11.0807 17.4699H10.5553V17.0219H10.2309V17.4699H9.93732V17.7635H10.2309V18.4433C10.2309 18.7832 10.3699 18.9841 10.7408 18.9841C10.8798 18.9841 11.0343 18.9378 11.1425 18.8759L11.0498 18.5978C10.9571 18.6596 10.8489 18.6751 10.7717 18.6751C10.6172 18.6751 10.5553 18.5824 10.5553 18.4279V17.7635H11.0807V17.4699ZM13.8309 17.439C13.6455 17.439 13.5219 17.5317 13.4446 17.6553V17.4699H13.1202V18.9532H13.4446V18.1189C13.4446 17.8717 13.5528 17.7326 13.7536 17.7326C13.8154 17.7326 13.8927 17.748 13.9545 17.7635L14.0472 17.4545C13.9854 17.439 13.8927 17.439 13.8309 17.439ZM9.67466 17.5935C9.52015 17.4854 9.30384 17.439 9.07208 17.439C8.70127 17.439 8.45406 17.6244 8.45406 17.918C8.45406 18.1652 8.63947 18.3043 8.96393 18.3506L9.11844 18.3661C9.28839 18.397 9.3811 18.4433 9.3811 18.5206C9.3811 18.6287 9.25749 18.706 9.04118 18.706C8.82487 18.706 8.65492 18.6287 8.54676 18.5515L8.39225 18.7987C8.56221 18.9223 8.79397 18.9841 9.02573 18.9841C9.45835 18.9841 9.70556 18.7832 9.70556 18.5051C9.70556 18.2425 9.5047 18.1034 9.19569 18.0571L9.04118 18.0416C8.90213 18.0262 8.79397 17.9953 8.79397 17.9026C8.79397 17.7944 8.90213 17.7326 9.07208 17.7326C9.25749 17.7326 9.4429 17.8099 9.5356 17.8562L9.67466 17.5935ZM18.2961 17.439C18.1107 17.439 17.9871 17.5317 17.9099 17.6553V17.4699H17.5854V18.9532H17.9099V18.1189C17.9099 17.8717 18.018 17.7326 18.2189 17.7326C18.2807 17.7326 18.3579 17.748 18.4197 17.7635L18.5124 17.4545C18.4506 17.439 18.3579 17.439 18.2961 17.439ZM14.1554 18.2116C14.1554 18.6596 14.4644 18.9841 14.9433 18.9841C15.1596 18.9841 15.3142 18.9378 15.4687 18.8141L15.3142 18.5515C15.1905 18.6442 15.0669 18.6905 14.9279 18.6905C14.6652 18.6905 14.4798 18.5051 14.4798 18.2116C14.4798 17.9335 14.6652 17.748 14.9279 17.7326C15.0669 17.7326 15.1905 17.779 15.3142 17.8717L15.4687 17.609C15.3142 17.4854 15.1596 17.439 14.9433 17.439C14.4644 17.439 14.1554 17.7635 14.1554 18.2116ZM17.1528 18.2116V17.4699H16.8283V17.6553C16.7202 17.5163 16.5657 17.439 16.3648 17.439C15.9476 17.439 15.6232 17.7635 15.6232 18.2116C15.6232 18.6596 15.9476 18.9841 16.3648 18.9841C16.5811 18.9841 16.7356 18.9068 16.8283 18.7678V18.9532H17.1528V18.2116ZM15.9631 18.2116C15.9631 17.9489 16.133 17.7326 16.4112 17.7326C16.6738 17.7326 16.8592 17.9335 16.8592 18.2116C16.8592 18.4742 16.6738 18.6905 16.4112 18.6905C16.133 18.6751 15.9631 18.4742 15.9631 18.2116ZM12.085 17.439C11.6523 17.439 11.3433 17.748 11.3433 18.2116C11.3433 18.6751 11.6523 18.9841 12.1004 18.9841C12.3167 18.9841 12.533 18.9223 12.703 18.7832L12.5485 18.5515C12.4249 18.6442 12.2704 18.706 12.1159 18.706C11.915 18.706 11.7141 18.6133 11.6678 18.3506H12.7648V18.227C12.7802 17.748 12.5021 17.439 12.085 17.439ZM12.085 17.7171C12.2858 17.7171 12.4249 17.8408 12.4558 18.0725H11.6832C11.7141 17.8717 11.8532 17.7171 12.085 17.7171ZM20.1348 18.2116V16.8828H19.8103V17.6553C19.7021 17.5163 19.5476 17.439 19.3468 17.439C18.9296 17.439 18.6051 17.7635 18.6051 18.2116C18.6051 18.6596 18.9296 18.9841 19.3468 18.9841C19.5631 18.9841 19.7176 18.9068 19.8103 18.7678V18.9532H20.1348V18.2116ZM18.9451 18.2116C18.9451 17.9489 19.115 17.7326 19.3931 17.7326C19.6558 17.7326 19.8412 17.9335 19.8412 18.2116C19.8412 18.4742 19.6558 18.6905 19.3931 18.6905C19.115 18.6751 18.9451 18.4742 18.9451 18.2116ZM8.09869 18.2116V17.4699H7.77423V17.6553C7.66607 17.5163 7.51157 17.439 7.31071 17.439C6.89354 17.439 6.56908 17.7635 6.56908 18.2116C6.56908 18.6596 6.89354 18.9841 7.31071 18.9841C7.52702 18.9841 7.68152 18.9068 7.77423 18.7678V18.9532H8.09869V18.2116ZM6.89354 18.2116C6.89354 17.9489 7.0635 17.7326 7.34161 17.7326C7.60427 17.7326 7.78968 17.9335 7.78968 18.2116C7.78968 18.4742 7.60427 18.6905 7.34161 18.6905C7.0635 18.6751 6.89354 18.4742 6.89354 18.2116Z" fill="#242424"/>
<path d="M14.4335 6.20605H9.56653V14.9511H14.4335V6.20605Z" fill="#FF5F00"/>
<path d="M9.87555 10.5788C9.87555 8.80202 10.7099 7.22605 11.9923 6.2063C11.0498 5.46467 9.8601 5.0166 8.56224 5.0166C5.48756 5.0166 3 7.50416 3 10.5788C3 13.6535 5.48756 16.1411 8.56224 16.1411C9.8601 16.1411 11.0498 15.693 11.9923 14.9514C10.7099 13.9471 9.87555 12.3557 9.87555 10.5788Z" fill="#EB001B"/>
<path d="M21 10.5788C21 13.6535 18.5125 16.1411 15.4378 16.1411C14.1399 16.1411 12.9502 15.693 12.0078 14.9514C13.3056 13.9316 14.1245 12.3557 14.1245 10.5788C14.1245 8.80202 13.2902 7.22605 12.0078 6.2063C12.9502 5.46467 14.1399 5.0166 15.4378 5.0166C18.5125 5.0166 21 7.51961 21 10.5788Z" fill="#F79E1B"/>
</svg>
